<?xml version="1.0" encoding="utf-8"?><svg xmlns="http://www.w3.org/2000/svg" xmlns:xlink="http://www.w3.org/1999/xlink"><symbol viewBox="0 0 315.289 315.289" id="adress" xmlns="http://www.w3.org/2000/svg"><path d="M25.277 95.991c3.629 7.01 7.824 14.115 12.246 21.031l1.756 2.72a424.91 424.91 0 0 0 11.343 16.485c-14.51 8.949-22.596 19.327-22.596 29.444 0 12.723 12.775 25.861 35.051 36.046 7.314 3.344 15.367 6.236 23.97 8.676-1.678-11.29-2.717-23.054-3.084-35.087a9.984 9.984 0 0 0 2.625.365 10 10 0 0 0 7.547-3.44c1.376-1.583 4.934-5.721 9.724-11.623a304.065 304.065 0 0 0-.054 5.063c0 17.288 1.48 34.029 4.283 49.556 15.526 2.802 32.267 4.283 49.554 4.283 17.29 0 34.032-1.48 49.561-4.283 2.802-15.527 4.282-32.268 4.282-49.556s-1.48-34.029-4.282-49.556c-15.528-2.802-32.271-4.283-49.561-4.283-6.46 0-12.843.207-19.115.612 4.195-6.804 8.103-13.727 11.412-20.507 2.558-.063 5.123-.105 7.703-.105 15.396 0 30.438 1.12 44.727 3.243-2.439-8.604-5.332-16.657-8.676-23.971-10.185-22.274-23.323-35.05-36.046-35.051h-.003c-.245 0-.491.014-.737.023a73.285 73.285 0 0 0-9.401-19.672c3.351-.225 6.729-.351 10.137-.351h.006c82.497.003 149.614 67.12 149.614 149.618 0 82.498-67.116 149.615-149.615 149.618h-.006c-82.498 0-149.615-67.118-149.615-149.618-.001-25.146 6.245-48.858 17.25-69.68zm175.837-52.43c3.869 5.612 7.476 12.028 10.768 19.227 4.982 10.898 9.067 23.192 12.207 36.441 13.247 3.14 25.541 7.224 36.439 12.206 7.199 3.292 13.617 6.899 19.229 10.769-13.054-36.56-42.083-65.589-78.643-78.643zm51.097 86.063c-7.314-3.344-15.366-6.235-23.969-8.675 2.123 14.287 3.242 29.327 3.242 44.722s-1.119 30.434-3.242 44.721c8.603-2.439 16.655-5.331 23.968-8.675 22.276-10.186 35.052-23.324 35.052-36.046.001-12.723-12.775-25.862-35.051-36.047zm27.546 79.513c-5.612 3.869-12.03 7.477-19.229 10.769-10.897 4.982-23.191 9.067-36.439 12.207-3.14 13.248-7.225 25.543-12.207 36.441-3.292 7.199-6.899 13.615-10.768 19.227 36.56-13.054 65.59-42.084 78.643-78.644zm-122.113 86.152h.003c12.723-.001 25.861-12.777 36.046-35.051 3.344-7.314 6.236-15.367 8.676-23.971-14.289 2.123-29.33 3.243-44.727 3.243-15.394 0-30.433-1.119-44.719-3.242 2.439 8.604 5.332 16.656 8.676 23.97 10.184 22.275 23.323 35.051 36.045 35.051zm-43.465-7.505c-3.869-5.612-7.478-12.03-10.77-19.23-4.983-10.898-9.068-23.192-12.208-36.441-13.248-3.139-25.543-7.225-36.441-12.207-7.199-3.292-13.616-6.899-19.228-10.769 13.054 36.563 42.085 65.594 78.647 78.647z" data-original="#000000" class="aaactive-path"/><path d="M86.255 154.702a2.999 2.999 0 0 1-2.319-1.097c-9.218-11.23-55.2-68.64-55.2-96.088C28.736 25.802 54.539 0 86.254 0s57.517 25.802 57.517 57.517c0 27.459-45.98 84.861-55.197 96.088a2.999 2.999 0 0 1-2.319 1.097zm30.999-100.533c0-17.093-13.907-31-31-31s-31 13.907-31 31 13.907 31 31 31 31-13.906 31-31z" data-original="#000000" class="aaactive-path"/></symbol><symbol viewBox="0 0 512 512" id="apple" xmlns="http://www.w3.org/2000/svg"><path d="M395.748 272.046c-.646-64.841 52.88-95.938 55.271-97.483-30.075-44.01-76.925-50.039-93.62-50.736-39.871-4.037-77.798 23.474-98.033 23.474-20.184 0-51.409-22.877-84.476-22.276-43.458.646-83.529 25.269-105.906 64.19-45.152 78.35-11.563 194.42 32.445 257.963 21.504 31.104 47.146 66.038 80.813 64.79 32.421-1.294 44.681-20.979 83.878-20.979 39.196 0 50.215 20.979 84.524 20.335 34.888-.648 56.991-31.699 78.347-62.898 24.694-36.084 34.862-71.019 35.462-72.812-.775-.354-68.031-26.119-68.705-103.568zM331.28 81.761C349.149 60.082 361.21 30.005 357.92 0c-25.739 1.048-56.938 17.145-75.405 38.775-16.57 19.188-31.075 49.813-27.188 79.218 28.734 2.242 58.065-14.602 75.953-36.232z"/></symbol><symbol viewBox="0 0 510 510" id="bell" xmlns="http://www.w3.org/2000/svg"><path d="M255 510c28.05 0 51-22.95 51-51H204c0 28.05 22.95 51 51 51zm165.75-153V216.75c0-79.05-53.55-142.8-127.5-160.65V38.25C293.25 17.85 275.4 0 255 0s-38.25 17.85-38.25 38.25V56.1c-73.95 17.85-127.5 81.6-127.5 160.65V357l-51 51v25.5h433.5V408l-51-51zm-51 25.5h-229.5V216.75C140.25 153 191.25 102 255 102s114.75 51 114.75 114.75V382.5z"/></symbol><symbol viewBox="0 0 55.951 55.951" id="bulb" xmlns="http://www.w3.org/2000/svg"><path d="M35.734 43.782l-15.471-.027h-.002a1.5 1.5 0 0 0-.002 3l15.47.027h.003a1.5 1.5 0 0 0 .002-3zm-.34 4.509l-14.796.014a1.5 1.5 0 0 0 .001 3h.001l14.794-.014a1.5 1.5 0 0 0 0-3zm-2.003 4.605h-.008l-10.79.055a1.5 1.5 0 0 0 .008 3h.008l10.79-.055a1.5 1.5 0 0 0-.008-3zm10.452-35.552C43.843 7.765 36.739 0 27.976 0S12.108 7.765 12.108 17.344c0 4.458 1.552 8.509 4.08 11.581a2.222 2.222 0 0 0-.256.021c.001 0 4.368 4.389 4.738 13.389h15.055s.021-8.104 4.29-13.491h-.183c2.488-3.064 4.011-7.083 4.011-11.5zm-15.568 21.49a.5.5 0 0 1-.5-.5V25.538l-5.37-5.479a.5.5 0 0 1 .714-.7l5.143 5.247 4.76-5.233a.5.5 0 0 1 .74.673l-4.987 5.481v12.807a.5.5 0 0 1-.5.5z"/></symbol><symbol viewBox="0 0 48 48" id="camera" xmlns="http://www.w3.org/2000/svg"><path d="M24.021 14.825c-5.886 0-10.66 4.771-10.66 10.656 0 5.886 4.773 10.656 10.66 10.656 5.885 0 10.657-4.771 10.657-10.656.002-5.885-4.772-10.656-10.657-10.656zm0 16.551a5.982 5.982 0 0 1-5.986-5.984 5.983 5.983 0 0 1 5.986-5.983 5.982 5.982 0 0 1 5.984 5.983 5.978 5.978 0 0 1-5.984 5.984z"/><path d="M40 7.481h-5.451l-2.072-2.255c-.356-.391-1.06-.707-1.565-.707H17.134c-.508 0-1.21.316-1.567.707l-2.071 2.255H9.529V6.186a.667.667 0 0 0-.667-.667H4.69a.667.667 0 0 0-.667.667v1.295H2a2 2 0 0 0-2 2v30a4 4 0 0 0 4 4h40a4 4 0 0 0 4-4v-24a8 8 0 0 0-8-8zm3 31H5v-26h35c1.654 0 3 1.346 3 3v23z"/><circle cx="9.527" cy="16.874" r="1.982"/><circle cx="24.021" cy="25.392" r="2.985"/></symbol><symbol viewBox="0 0 247.768 247.768" id="case" xmlns="http://www.w3.org/2000/svg"><path d="M230.268 53.519h-27.6V26.808c0-6.893-5.607-12.5-12.5-12.5H57.6c-6.893 0-12.5 5.607-12.5 12.5v26.711H17.5c-9.649 0-17.5 7.851-17.5 17.5V215.96c0 9.649 7.851 17.5 17.5 17.5h212.768c9.649 0 17.5-7.851 17.5-17.5V71.019c0-9.65-7.851-17.5-17.5-17.5zM60.1 29.308h127.569v24.211H60.1V29.308zM17.5 68.519h212.768c1.355 0 2.5 1.145 2.5 2.5v44.979h-75.821v-6.72c0-6.893-5.607-12.5-12.5-12.5h-41.126c-6.893 0-12.5 5.607-12.5 12.5v6.72H15V71.019c0-1.356 1.145-2.5 2.5-2.5zm124.447 43.26v24.211h-36.126v-24.211h36.126zm88.321 106.681H17.5c-1.355 0-2.5-1.144-2.5-2.5v-84.962h75.821v7.491c0 6.893 5.607 12.5 12.5 12.5h41.126c6.893 0 12.5-5.607 12.5-12.5v-7.491h75.821v84.962c0 1.356-1.145 2.5-2.5 2.5z"/></symbol><symbol viewBox="0 0 486.463 486.463" id="error" xmlns="http://www.w3.org/2000/svg"><path d="M243.225 333.382c-13.6 0-25 11.4-25 25s11.4 25 25 25c13.1 0 25-11.4 24.4-24.4.6-14.3-10.7-25.6-24.4-25.6z"/><path d="M474.625 421.982c15.7-27.1 15.8-59.4.2-86.4l-156.6-271.2c-15.5-27.3-43.5-43.5-74.9-43.5s-59.4 16.3-74.9 43.4l-156.8 271.5c-15.6 27.3-15.5 59.8.3 86.9 15.6 26.8 43.5 42.9 74.7 42.9h312.8c31.3 0 59.4-16.3 75.2-43.6zm-34-19.6c-8.7 15-24.1 23.9-41.3 23.9h-312.8c-17 0-32.3-8.7-40.8-23.4-8.6-14.9-8.7-32.7-.1-47.7l156.8-271.4c8.5-14.9 23.7-23.7 40.9-23.7 17.1 0 32.4 8.9 40.9 23.8l156.7 271.4c8.4 14.6 8.3 32.2-.3 47.1z"/><path d="M237.025 157.882c-11.9 3.4-19.3 14.2-19.3 27.3.6 7.9 1.1 15.9 1.7 23.8 1.7 30.1 3.4 59.6 5.1 89.7.6 10.2 8.5 17.6 18.7 17.6s18.2-7.9 18.7-18.2c0-6.2 0-11.9.6-18.2 1.1-19.3 2.3-38.6 3.4-57.9.6-12.5 1.7-25 2.3-37.5 0-4.5-.6-8.5-2.3-12.5-5.1-11.2-17-16.9-28.9-14.1z"/></symbol><symbol viewBox="0 0 90 90" id="fb" xmlns="http://www.w3.org/2000/svg"><path d="M90 15.001C90 7.119 82.884 0 75 0H15C7.116 0 0 7.119 0 15.001v59.998C0 82.881 7.116 90 15.001 90H45V56H34V41h11v-5.844C45 25.077 52.568 16 61.875 16H74v15H61.875C60.548 31 59 32.611 59 35.024V41h15v15H59v34h16c7.884 0 15-7.119 15-15.001V15.001z"/></symbol><symbol viewBox="0 0 478.703 478.703" id="gears" xmlns="http://www.w3.org/2000/svg"><path d="M454.2 189.101l-33.6-5.7c-3.5-11.3-8-22.2-13.5-32.6l19.8-27.7c8.4-11.8 7.1-27.9-3.2-38.1l-29.8-29.8c-5.6-5.6-13-8.7-20.9-8.7-6.2 0-12.1 1.9-17.1 5.5l-27.8 19.8c-10.8-5.7-22.1-10.4-33.8-13.9l-5.6-33.2a29.54 29.54 0 0 0-29.2-24.7h-42.1c-14.5 0-26.8 10.4-29.2 24.7l-5.8 34c-11.2 3.5-22.1 8.1-32.5 13.7l-27.5-19.8c-5-3.6-11-5.5-17.2-5.5-7.9 0-15.4 3.1-20.9 8.7l-29.9 29.8c-10.2 10.2-11.6 26.3-3.2 38.1l20 28.1c-5.5 10.5-9.9 21.4-13.3 32.7l-33.2 5.6a29.54 29.54 0 0 0-24.7 29.2v42.1c0 14.5 10.4 26.8 24.7 29.2l34 5.8c3.5 11.2 8.1 22.1 13.7 32.5l-19.7 27.4c-8.4 11.8-7.1 27.9 3.2 38.1l29.8 29.8c5.6 5.6 13 8.7 20.9 8.7 6.2 0 12.1-1.9 17.1-5.5l28.1-20c10.1 5.3 20.7 9.6 31.6 13l5.6 33.6a29.54 29.54 0 0 0 29.2 24.7h42.2c14.5 0 26.8-10.4 29.2-24.7l5.7-33.6c11.3-3.5 22.2-8 32.6-13.5l27.7 19.8c5 3.6 11 5.5 17.2 5.5 7.9 0 15.3-3.1 20.9-8.7l29.8-29.8c10.2-10.2 11.6-26.3 3.2-38.1l-19.8-27.8c5.5-10.5 10.1-21.4 13.5-32.6l33.6-5.6a29.54 29.54 0 0 0 24.7-29.2v-42.1c.2-14.5-10.2-26.8-24.5-29.2zm-2.3 71.3c0 1.3-.9 2.4-2.2 2.6l-42 7c-5.3.9-9.5 4.8-10.8 9.9-3.8 14.7-9.6 28.8-17.4 41.9-2.7 4.6-2.5 10.3.6 14.7l24.7 34.8c.7 1 .6 2.5-.3 3.4l-29.8 29.8c-.7.7-1.4.8-1.9.8-.6 0-1.1-.2-1.5-.5l-34.7-24.7c-4.3-3.1-10.1-3.3-14.7-.6-13.1 7.8-27.2 13.6-41.9 17.4-5.2 1.3-9.1 5.6-9.9 10.8l-7.1 42c-.2 1.3-1.3 2.2-2.6 2.2h-42.1c-1.3 0-2.4-.9-2.6-2.2l-7-42c-.9-5.3-4.8-9.5-9.9-10.8-14.3-3.7-28.1-9.4-41-16.8-2.1-1.2-4.5-1.8-6.8-1.8-2.7 0-5.5.8-7.8 2.5l-35 24.9c-.5.3-1 .5-1.5.5-.4 0-1.2-.1-1.9-.8l-29.8-29.8c-.9-.9-1-2.3-.3-3.4l24.6-34.5c3.1-4.4 3.3-10.2.6-14.8-7.8-13-13.8-27.1-17.6-41.8-1.4-5.1-5.6-9-10.8-9.9l-42.3-7.2c-1.3-.2-2.2-1.3-2.2-2.6v-42.1c0-1.3.9-2.4 2.2-2.6l41.7-7c5.3-.9 9.6-4.8 10.9-10 3.7-14.7 9.4-28.9 17.1-42 2.7-4.6 2.4-10.3-.7-14.6l-24.9-35c-.7-1-.6-2.5.3-3.4l29.8-29.8c.7-.7 1.4-.8 1.9-.8.6 0 1.1.2 1.5.5l34.5 24.6c4.4 3.1 10.2 3.3 14.8.6 13-7.8 27.1-13.8 41.8-17.6 5.1-1.4 9-5.6 9.9-10.8l7.2-42.3c.2-1.3 1.3-2.2 2.6-2.2h42.1c1.3 0 2.4.9 2.6 2.2l7 41.7c.9 5.3 4.8 9.6 10 10.9 15.1 3.8 29.5 9.7 42.9 17.6 4.6 2.7 10.3 2.5 14.7-.6l34.5-24.8c.5-.3 1-.5 1.5-.5.4 0 1.2.1 1.9.8l29.8 29.8c.9.9 1 2.3.3 3.4l-24.7 34.7c-3.1 4.3-3.3 10.1-.6 14.7 7.8 13.1 13.6 27.2 17.4 41.9 1.3 5.2 5.6 9.1 10.8 9.9l42 7.1c1.3.2 2.2 1.3 2.2 2.6v42.1h-.1z"/><path d="M239.4 136.001c-57 0-103.3 46.3-103.3 103.3s46.3 103.3 103.3 103.3 103.3-46.3 103.3-103.3-46.3-103.3-103.3-103.3zm0 179.6c-42.1 0-76.3-34.2-76.3-76.3s34.2-76.3 76.3-76.3 76.3 34.2 76.3 76.3-34.2 76.3-76.3 76.3z"/></symbol><symbol viewBox="0 0 57.949 57.949" id="internet" xmlns="http://www.w3.org/2000/svg"><path d="M29.975 27.985h11.972a34.935 34.935 0 0 0-2.664-12.477 36.873 36.873 0 0 1-9.308 1.44v11.037zm10.409-14.928a34.821 34.821 0 0 0 8.328-4.169l.653-.5C44.588 3.658 38.18.58 31.071.069l-.518.421c4.214 3.489 7.546 7.778 9.831 12.567zM29.975 2.628v12.32a34.975 34.975 0 0 0 8.473-1.283 34.976 34.976 0 0 0-8.473-11.037zm11.556 39.574a36.863 36.863 0 0 1 8.885 4.639l.868.65a28.858 28.858 0 0 0 6.665-17.505H43.947a36.93 36.93 0 0 1-2.416 12.216zM9.237 8.888a34.877 34.877 0 0 0 8.328 4.169C19.85 8.269 23.182 3.98 27.397.49l-.518-.421c-7.125.512-13.547 3.603-18.328 8.35l.686.469zm18.738-6.26a34.98 34.98 0 0 0-8.473 11.036 34.926 34.926 0 0 0 8.473 1.283V2.628zM14.003 29.985H0A28.866 28.866 0 0 0 6.665 47.49l.85-.635a36.994 36.994 0 0 1 8.906-4.652 36.889 36.889 0 0 1-2.418-12.218zm2.749-15.095a36.864 36.864 0 0 1-8.644-4.351l-.938-.642A28.87 28.87 0 0 0 0 27.985h14.003a36.926 36.926 0 0 1 2.749-13.095zm-.749 13.095h11.972V16.948a36.94 36.94 0 0 1-9.309-1.438 34.897 34.897 0 0 0-2.663 12.475zm11.294 29.406A37.098 37.098 0 0 1 17.186 44.05a34.928 34.928 0 0 0-8.492 4.42l-.689.515c4.774 5.003 11.31 8.304 18.605 8.896l.687-.49zm.678-17.368V29.985H16.003a34.912 34.912 0 0 0 2.313 11.58 36.828 36.828 0 0 1 9.659-1.542zm21.261 8.433a34.782 34.782 0 0 0-8.469-4.406 36.969 36.969 0 0 1-10.113 13.344l.685.487c7.295-.592 13.832-3.892 18.606-8.895l-.709-.53zm.649-37.949a37.079 37.079 0 0 1-8.689 4.38 36.944 36.944 0 0 1 2.751 13.098H57.95a28.87 28.87 0 0 0-7.209-18.133l-.856.655zm-21.91 44.835V42.023a34.844 34.844 0 0 0-8.882 1.4 34.94 34.94 0 0 0 8.882 11.919zm13.972-25.357H29.975v10.038a36.85 36.85 0 0 1 9.662 1.542 35.025 35.025 0 0 0 2.31-11.58zM38.86 43.423a34.904 34.904 0 0 0-8.885-1.4v13.323a34.83 34.83 0 0 0 8.885-11.923z"/></symbol><symbol viewBox="0 0 53.706 53.706" id="laptop" xmlns="http://www.w3.org/2000/svg"><path d="M5.881 40.27h41.943a2.994 2.994 0 0 0 2.996-2.996V7.313a3.993 3.993 0 0 0-3.992-3.994H6.879a3.993 3.993 0 0 0-3.993 3.994v29.96a2.997 2.997 0 0 0 2.995 2.997zM7.886 8.319H45.82v26.95H7.886V8.319zm44.821 33.786H1a1 1 0 0 0-1 1v3.701c0 1.979 2.009 3.58 4.486 3.58h44.735c2.478 0 4.485-1.604 4.485-3.58v-3.701a.999.999 0 0 0-.999-1zm-19.616 5.142H20.614a1 1 0 1 1 0-2h12.477c.554 0 1 .446 1 1 0 .553-.446 1-1 1z"/></symbol><symbol viewBox="0 0 465.951 465.951" id="link-symbol" xmlns="http://www.w3.org/2000/svg"><path d="M441.962 284.364l-59.389-59.383c-15.984-15.985-35.396-23.982-58.238-23.982-23.223 0-43.013 8.375-59.385 25.125l-25.125-25.125c16.751-16.368 25.125-36.256 25.125-59.671 0-22.841-7.898-42.157-23.698-57.958l-58.815-59.097C166.639 8.095 147.225.003 124.195.003c-22.841 0-42.16 7.902-57.958 23.7l-41.97 41.683C8.088 81.188 0 100.504 0 123.343c0 22.841 7.996 42.258 23.982 58.245l59.385 59.383c15.99 15.988 35.404 23.982 58.245 23.982 23.219 0 43.015-8.374 59.383-25.126l25.125 25.126c-16.75 16.371-25.125 36.258-25.125 59.672 0 22.843 7.898 42.154 23.697 57.958l58.82 59.094c15.801 16.177 35.208 24.27 58.238 24.27 22.844 0 42.154-7.897 57.958-23.698l41.973-41.682c16.177-15.804 24.271-35.118 24.271-57.958-.005-22.838-7.999-42.25-23.99-58.245zM200.999 162.178a687.506 687.506 0 0 1-5.28-5.424c-2.948-3.046-4.995-5.092-6.136-6.14-1.143-1.047-2.952-2.474-5.426-4.286-2.478-1.809-4.902-3.044-7.28-3.711-2.38-.666-4.998-.998-7.854-.998-7.611 0-14.084 2.666-19.414 7.993-5.33 5.327-7.992 11.799-7.992 19.414 0 2.853.332 5.471.998 7.851.666 2.382 1.903 4.808 3.711 7.281 1.809 2.474 3.237 4.283 4.283 5.426 1.044 1.141 3.09 3.188 6.136 6.139 3.046 2.95 4.853 4.709 5.424 5.281-5.711 5.898-12.563 8.848-20.555 8.848-7.804 0-14.277-2.568-19.414-7.705l-59.39-59.386c-5.327-5.33-7.992-11.802-7.992-19.417 0-7.421 2.662-13.796 7.992-19.126l41.971-41.687c5.523-5.14 11.991-7.705 19.417-7.705 7.611 0 14.083 2.663 19.414 7.993l58.813 59.097c5.33 5.33 7.992 11.801 7.992 19.414.001 7.991-3.139 14.94-9.418 20.848zm202.148 199.554l-41.973 41.686c-5.332 4.945-11.8 7.423-19.418 7.423-7.809 0-14.27-2.566-19.41-7.707l-58.813-59.101c-5.331-5.332-7.99-11.8-7.99-19.41 0-7.994 3.138-14.941 9.421-20.841.575.567 2.334 2.381 5.284 5.42 2.95 3.046 4.996 5.093 6.14 6.14 1.143 1.051 2.949 2.478 5.42 4.288 2.478 1.811 4.9 3.049 7.282 3.713 2.382.667 4.997.999 7.851.999 7.618 0 14.086-2.665 19.418-7.994 5.324-5.328 7.994-11.8 7.994-19.41 0-2.854-.339-5.472-1-7.851-.67-2.382-1.902-4.809-3.72-7.282-1.811-2.471-3.23-4.284-4.281-5.428-1.047-1.136-3.094-3.183-6.139-6.14a1189.395 1189.395 0 0 1-5.428-5.276c5.715-6.092 12.566-9.138 20.554-9.138 7.617 0 14.085 2.663 19.41 7.994l59.388 59.382c5.332 5.332 7.995 11.807 7.995 19.417 0 7.416-2.663 13.799-7.985 19.116z"/></symbol><symbol viewBox="0 0 508.52 508.52" id="lnkdn" xmlns="http://www.w3.org/2000/svg"><path d="M413.172 0H95.347C42.684 0 0 42.684 0 95.347v317.825c0 52.664 42.684 95.347 95.347 95.347h317.825c52.664 0 95.347-42.684 95.347-95.347V95.347C508.52 42.684 465.836 0 413.172 0zM190.695 377.417H127.13V154.94h63.565v222.477zm-29.812-236.112c-16.463 0-29.78-13.349-29.78-29.812s13.349-29.812 29.78-29.812c16.463.032 29.812 13.38 29.812 29.812 0 16.463-13.349 29.812-29.812 29.812zm252.289 236.112h-63.565V239.862c0-16.114-4.608-27.396-24.409-27.396-32.831 0-39.156 27.396-39.156 27.396v137.555h-63.565V154.94h63.565v21.262c9.09-6.96 31.782-21.231 63.565-21.231 20.595 0 63.565 12.332 63.565 86.83v135.616z"/></symbol><symbol viewBox="0 0 29.124 29.123" id="load" xmlns="http://www.w3.org/2000/svg"><path d="M7.922 7.938c3.215-3.215 8.132-3.674 11.847-1.402-1.26 1.246-2.711 2.702-2.711 2.702-1.017 1.219.125 1.922.705 1.904l6.788-.002c.358 0 .651.002.651.002h1.971a.654.654 0 0 0 .652-.653V1.154c.042-.854-.896-1.682-1.864-.729 0 0-1.602 1.561-2.708 2.657C17.597-1.05 9.623-.583 4.512 4.528 1.53 7.51.139 11.466.306 15.373h4.83c-.171-2.669.745-5.394 2.786-7.435zm16.065 5.812c.171 2.669-.745 5.394-2.786 7.435-3.216 3.215-8.131 3.674-11.846 1.402 1.258-1.246 2.71-2.703 2.71-2.703 1.016-1.219-.125-1.922-.705-1.902l-6.789.002c-.358 0-.651-.002-.651-.002H1.946a.654.654 0 0 0-.652.652v9.334c-.041.854.896 1.682 1.865.729 0 0 1.601-1.561 2.708-2.656 5.66 4.135 13.632 3.666 18.743-1.444 2.98-2.981 4.373-6.938 4.207-10.845l-4.83-.002z"/></symbol><symbol viewBox="0 0 58 58" id="locked" xmlns="http://www.w3.org/2000/svg"><path d="M40 21.314V10.22C40 4.585 35.065 0 29 0S18 4.585 18 10.22v11.094C12.584 24.896 9 31.034 9 38c0 11.028 8.972 20 20 20s20-8.972 20-20c0-6.966-3.584-13.104-9-16.686zm.313 6.787l-2.828 2.828a.997.997 0 0 1-1.414 0 .999.999 0 0 1 0-1.414l2.828-2.828a.999.999 0 1 1 1.414 1.414zM28 23a1 1 0 1 1 2 0v4a1 1 0 1 1-2 0v-4zm-8-2.843V10.22C20 5.688 24.037 2 29 2s9 3.688 9 8.22v9.938c-.188-.095-.38-.179-.57-.268a20.175 20.175 0 0 0-1.985-.804c-.26-.089-.518-.178-.782-.256a20.075 20.075 0 0 0-1.906-.463 19.987 19.987 0 0 0-1.579-.242c-.12-.013-.24-.021-.36-.032C30.213 18.036 29.608 18 29 18s-1.213.036-1.816.092c-.12.011-.241.019-.36.032a19.987 19.987 0 0 0-2.161.364c-.445.1-.887.211-1.324.341-.264.078-.523.168-.782.256a20.02 20.02 0 0 0-1.985.804c-.192.089-.384.173-.572.268zm-2.313 6.53a.999.999 0 0 1 1.414 0l2.828 2.828a.999.999 0 1 1-1.414 1.414l-2.828-2.828a.999.999 0 0 1 0-1.414zM14 39a1 1 0 1 1 0-2h4a1 1 0 1 1 0 2h-4zm7.929 7.485l-2.828 2.828a.997.997 0 0 1-1.414 0 .999.999 0 0 1 0-1.414l2.828-2.828a.999.999 0 1 1 1.414 1.414zM30 53a1 1 0 1 1-2 0v-4a1 1 0 1 1 2 0v4zm-1-6c-4.963 0-9-4.037-9-9s4.037-9 9-9 9 4.037 9 9-4.037 9-9 9zm11.313 2.313a.997.997 0 0 1-1.414 0l-2.828-2.828a.999.999 0 1 1 1.414-1.414l2.828 2.828a.999.999 0 0 1 0 1.414zM44 39h-4a1 1 0 1 1 0-2h4a1 1 0 1 1 0 2z"/></symbol><symbol viewBox="0 0 475.085 475.085" id="microphone" xmlns="http://www.w3.org/2000/svg"><path d="M237.541 328.897c25.128 0 46.632-8.946 64.523-26.83 17.888-17.884 26.833-39.399 26.833-64.525V91.365c0-25.126-8.938-46.632-26.833-64.525C284.173 8.951 262.669 0 237.541 0c-25.125 0-46.632 8.951-64.524 26.84-17.893 17.89-26.838 39.399-26.838 64.525v146.177c0 25.125 8.949 46.641 26.838 64.525 17.889 17.884 39.399 26.83 64.524 26.83z"/><path d="M396.563 188.15c-3.606-3.617-7.898-5.426-12.847-5.426-4.944 0-9.226 1.809-12.847 5.426-3.613 3.616-5.421 7.898-5.421 12.845v36.547c0 35.214-12.518 65.333-37.548 90.362-25.022 25.03-55.145 37.545-90.36 37.545-35.214 0-65.334-12.515-90.365-37.545-25.028-25.022-37.541-55.147-37.541-90.362v-36.547c0-4.947-1.809-9.229-5.424-12.845-3.617-3.617-7.895-5.426-12.847-5.426s-9.235 1.809-12.85 5.426c-3.618 3.616-5.426 7.898-5.426 12.845v36.547c0 42.065 14.04 78.659 42.112 109.776 28.073 31.118 62.762 48.961 104.068 53.526v37.691h-73.089c-4.949 0-9.231 1.811-12.847 5.428-3.617 3.614-5.426 7.898-5.426 12.847 0 4.941 1.809 9.233 5.426 12.847 3.616 3.614 7.898 5.428 12.847 5.428h182.719c4.948 0 9.236-1.813 12.847-5.428 3.621-3.613 5.431-7.905 5.431-12.847 0-4.948-1.81-9.232-5.431-12.847-3.61-3.617-7.898-5.428-12.847-5.428h-73.08v-37.691c41.299-4.565 75.985-22.408 104.061-53.526 28.076-31.117 42.12-67.711 42.12-109.776v-36.547c0-4.946-1.813-9.225-5.435-12.845z"/></symbol><symbol viewBox="0 0 416.208 416.209" id="padlock" xmlns="http://www.w3.org/2000/svg"><path d="M344.757 166.9h-20.543v-50.792C324.214 52.086 272.128 0 208.107 0 144.084 0 91.996 52.086 91.996 116.108V166.9H71.453c-6.635 0-12.012 5.377-12.012 12.011v225.286c0 6.635 5.377 12.012 12.012 12.012h273.305c6.633 0 12.01-5.377 12.01-12.012V178.911c-.001-6.634-5.378-12.011-12.011-12.011zM226.833 304.012v47.961a7.586 7.586 0 0 1-7.586 7.586h-22.286a7.586 7.586 0 0 1-7.586-7.586v-47.961c-8.287-5.875-13.699-15.535-13.699-26.466 0-17.907 14.518-32.427 32.428-32.427 17.908 0 32.426 14.52 32.426 32.427.001 10.931-5.411 20.591-13.697 26.466zM268.779 166.9H147.431v-50.792c0-33.456 27.219-60.673 60.676-60.673 33.455 0 60.672 27.217 60.672 60.673V166.9z"/></symbol><symbol viewBox="0 0 612 612" id="paper-plane" xmlns="http://www.w3.org/2000/svg"><path d="M0 286.886s139.491 83.718 178.598 106.96L592.523.182C545.446 23.022 0 286.886 0 286.886zm198.916 129.017c25.555 46.924 106.903 195.915 106.903 195.915S606.858 28.852 611.637 19.295c.191-.574.229-1.147.363-1.72L198.916 415.903z"/></symbol><symbol viewBox="0 0 365.449 365.449" id="phone" xmlns="http://www.w3.org/2000/svg"><path d="M281.507 10.85C274.279 3.614 265.71 0 255.813 0H109.637c-9.9 0-18.464 3.617-25.697 10.85-7.233 7.229-10.85 15.796-10.85 25.693v292.361c0 9.896 3.617 18.462 10.85 25.693 7.233 7.234 15.797 10.852 25.697 10.852h146.176c9.896 0 18.466-3.621 25.693-10.852 7.234-7.231 10.852-15.797 10.852-25.693V36.543c0-9.897-3.613-18.46-10.851-25.693zM159.885 36.543h45.685c3.046 0 4.565 1.523 4.565 4.569 0 3.045-1.52 4.57-4.565 4.57h-45.685c-3.045 0-4.568-1.525-4.568-4.57-.001-3.046 1.522-4.569 4.568-4.569zm38.976 308.493c-4.476 4.469-9.852 6.707-16.135 6.707-6.28 0-11.656-2.238-16.13-6.707-4.474-4.477-6.711-9.856-6.711-16.132 0-6.283 2.24-11.66 6.711-16.133 4.471-4.469 9.851-6.714 16.13-6.714 6.284 0 11.66 2.245 16.135 6.714 4.473 4.473 6.708 9.85 6.708 16.133s-2.238 11.656-6.708 16.132zm66.093-61.811c0 2.471-.903 4.62-2.714 6.424-1.813 1.807-3.949 2.707-6.42 2.707H109.637c-2.474 0-4.615-.903-6.423-2.707s-2.712-3.953-2.712-6.424V82.229c0-2.474.903-4.617 2.712-6.423 1.809-1.805 3.949-2.714 6.423-2.714h146.176c2.478 0 4.616.905 6.427 2.714 1.811 1.807 2.71 3.949 2.71 6.423v200.995h.004z"/></symbol><symbol viewBox="0 0 438.557 438.557" id="pintrst" xmlns="http://www.w3.org/2000/svg"><path d="M414.418 24.128C398.341 8.047 378.972.005 356.323.005V0H82.239C59.591 0 40.222 8.044 24.138 24.125 8.057 40.209.015 59.578.015 82.226v274.089c0 22.647 8.042 42.018 24.123 58.095 16.084 16.084 35.454 24.126 58.102 24.126h52.25c-3.239-29.304-2.573-53.481 1.997-72.512l27.978-118.198c-4.568-9.329-6.854-20.841-6.854-34.543 0-15.796 4.045-29.075 12.137-39.827 8.086-10.757 17.937-16.134 29.547-16.134 9.326 0 16.512 3.092 21.554 9.276 5.041 6.189 7.566 13.945 7.566 23.272 0 5.898-1.047 12.99-3.138 21.267-2.098 8.285-4.9 17.99-8.422 29.126-3.521 11.135-6.042 19.934-7.566 26.404-2.663 11.424-.476 21.27 6.567 29.555 7.042 8.274 16.272 12.422 27.696 12.422 20.177 0 36.686-11.231 49.539-33.694 12.847-22.456 19.267-49.676 19.267-81.649 0-24.551-7.946-44.54-23.846-59.955-15.886-15.418-38.013-23.128-66.376-23.128-31.78 0-57.526 10.138-77.228 30.407-19.701 20.271-29.552 44.684-29.552 73.233 0 16.748 4.761 31.025 14.277 42.828 3.234 3.614 4.283 7.615 3.14 11.995-.953 3.237-2.38 9.041-4.283 17.412-.763 2.669-2.141 4.473-4.141 5.428-2.002.951-4.237.951-6.711 0-14.655-6.088-25.747-16.563-33.263-31.409-7.517-14.842-11.276-31.977-11.276-51.387 0-12.564 2.047-25.179 6.14-37.831 4.093-12.66 10.422-24.841 18.986-36.545 8.564-11.709 18.792-22.129 30.69-31.267 11.894-9.132 26.458-16.413 43.682-21.838 17.222-5.424 35.736-8.137 55.524-8.137 20.181 0 38.927 3.48 56.25 10.426 17.319 6.945 31.833 16.175 43.544 27.69 11.703 11.516 20.889 24.744 27.545 39.687 6.666 14.938 9.996 30.406 9.996 46.392 0 43.019-10.896 78.564-32.688 106.637-21.793 28.075-49.916 42.116-84.363 42.116-11.43 0-22.128-2.666-32.124-7.994-9.991-5.328-16.986-11.704-20.984-19.13-8.374 33.312-13.417 53.197-15.131 59.669-4.377 16.751-14.655 36.733-30.833 59.956H356.32c22.647 0 42.017-8.042 58.095-24.126 16.084-16.084 24.126-35.454 24.126-58.102v-274.1c0-22.646-8.042-42.016-24.123-58.1z"/></symbol><symbol viewBox="0 0 56.966 56.966" id="search" xmlns="http://www.w3.org/2000/svg"><path d="M55.146 51.887L41.588 37.786A22.926 22.926 0 0 0 46.984 23c0-12.682-10.318-23-23-23s-23 10.318-23 23 10.318 23 23 23c4.761 0 9.298-1.436 13.177-4.162l13.661 14.208c.571.593 1.339.92 2.162.92.779 0 1.518-.297 2.079-.837a3.004 3.004 0 0 0 .083-4.242zM23.984 6c9.374 0 17 7.626 17 17s-7.626 17-17 17-17-7.626-17-17 7.626-17 17-17z"/></symbol><symbol viewBox="0 0 512 512" id="skype" xmlns="http://www.w3.org/2000/svg"><path d="M487.654 288.97c1.406-10.4 2.215-20.973 2.215-31.736 0-129.153-105.27-233.872-235.102-233.872-12.904 0-25.555 1.06-37.866 3.08-22.072-14.384-48.342-22.767-76.612-22.767C62.766 3.675 0 66.483 0 143.981c0 28.198 8.299 54.394 22.59 76.389a232.862 232.862 0 0 0-2.909 36.859c0 129.176 105.217 233.882 235.085 233.882 14.657 0 28.927-1.429 42.796-3.935 21.549 13.369 46.934 21.148 74.145 21.148C449.211 508.327 512 445.503 512 368.013c-.004-29.293-8.961-56.528-24.346-79.043zM276.74 429.597c-74.705 3.894-109.664-12.637-141.689-42.691-35.765-33.565-21.398-71.854 7.74-73.801 29.122-1.942 46.607 33.015 62.15 42.736 15.524 9.688 74.594 31.76 105.793-3.908 33.977-38.828-22.594-58.92-64.06-65.002-59.203-8.766-133.95-40.792-128.135-103.907 5.816-63.074 53.582-95.414 103.85-99.976 64.077-5.817 105.792 9.707 138.786 37.86 38.148 32.529 17.508 68.894-6.799 71.82-24.213 2.909-51.404-53.504-104.792-54.352-55.027-.864-92.217 57.261-24.286 73.784 67.967 16.505 140.75 23.286 166.961 85.417 26.231 62.137-40.751 128.125-115.519 132.02z"/></symbol><symbol viewBox="0 0 49.94 49.94" id="star" xmlns="http://www.w3.org/2000/svg"><path d="M48.856 22.73a3.56 3.56 0 0 0 .906-3.671 3.56 3.56 0 0 0-2.892-2.438l-12.092-1.757a1.58 1.58 0 0 1-1.19-.865L28.182 3.043a3.56 3.56 0 0 0-3.212-1.996 3.56 3.56 0 0 0-3.211 1.996L16.352 14c-.23.467-.676.79-1.191.865L3.069 16.622A3.56 3.56 0 0 0 .177 19.06a3.56 3.56 0 0 0 .906 3.671l8.749 8.528c.373.364.544.888.456 1.4L8.224 44.701a3.506 3.506 0 0 0 .781 2.904c1.066 1.267 2.927 1.653 4.415.871l10.814-5.686a1.619 1.619 0 0 1 1.472 0l10.815 5.686a3.544 3.544 0 0 0 1.666.417c1.057 0 2.059-.47 2.748-1.288a3.505 3.505 0 0 0 .781-2.904l-2.065-12.042a1.582 1.582 0 0 1 .456-1.4l8.749-8.529z"/></symbol><symbol viewBox="0 0 475.044 475.044" id="star-half" xmlns="http://www.w3.org/2000/svg"><path d="M474.487 183.276c-1.711-5.236-6.852-8.52-15.41-9.851l-143.323-20.839L251.52 22.681c-4-7.804-8.661-11.704-13.989-11.704-5.519 0-10.183 3.9-13.988 11.704l-64.241 129.905-143.324 20.839c-8.564 1.332-13.704 4.615-15.415 9.851-1.709 5.236.478 10.898 6.567 16.989l103.924 101.068-24.553 142.749c-.95 6.286-.381 11.173 1.715 14.702 2.092 3.524 5.33 5.283 9.707 5.283 3.237 0 7.043-1.14 11.42-3.433l128.194-67.382 128.19 67.382c4.377 2.286 8.186 3.433 11.423 3.433 4.381 0 7.622-1.759 9.709-5.283 2.088-3.529 2.659-8.416 1.708-14.702l-24.551-142.749 103.63-101.068c6.284-6.091 8.566-11.753 6.841-16.989zm-135.89 91.789l-13.99 13.421 3.43 18.843 17.128 101.357-90.786-47.965-16.848-8.856V76.927l45.395 91.933 8.559 17.128 18.85 2.856 101.642 14.844-73.38 71.377z"/></symbol><symbol viewBox="0 0 426.667 426.667" id="success" xmlns="http://www.w3.org/2000/svg"><path d="M213.333 0C95.518 0 0 95.514 0 213.333s95.518 213.333 213.333 213.333c117.828 0 213.333-95.514 213.333-213.333S331.157 0 213.333 0zm-39.134 322.918l-93.935-93.931 31.309-31.309 62.626 62.622 140.894-140.898 31.309 31.309-172.203 172.207z"/></symbol><symbol viewBox="0 0 512 512" id="sunglasses" xmlns="http://www.w3.org/2000/svg"><path d="M480.6 235.6h-10.9c-9.4-43.7-48.3-76.6-94.8-76.6-38.8 0-72.3 23-87.7 56-11.7-8.1-23.8-11.9-36.1-11-9.9.8-18.5 4.4-25.7 9.3-15.8-32.1-48.8-54.3-86.9-54.3-46.5 0-85.4 32.9-94.8 76.6H31.4c-11.3 0-20.4 9.1-20.4 20.4 0 11.3 9.1 20.4 20.4 20.4h12.2C53 320.1 91.9 353 138.4 353c51.5 0 93.7-40.5 96.7-91.3 4.1-6.8 12.2-11.5 19.1-12 6.2-.5 15 1.3 24.1 13.4 3.7 50.2 45.5 89.9 96.6 89.9 46.5 0 85.4-32.9 94.8-76.6h10.9c11.3 0 20.4-9.1 20.4-20.4 0-11.3-9.1-20.4-20.4-20.4z"/></symbol><symbol viewBox="0 0 612 612" id="twtr" xmlns="http://www.w3.org/2000/svg"><path d="M612 116.258a250.714 250.714 0 0 1-72.088 19.772c25.929-15.527 45.777-40.155 55.184-69.411-24.322 14.379-51.169 24.82-79.775 30.48-22.907-24.437-55.49-39.658-91.63-39.658-69.334 0-125.551 56.217-125.551 125.513 0 9.828 1.109 19.427 3.251 28.606-104.326-5.24-196.835-55.223-258.75-131.174-10.823 18.51-16.98 40.078-16.98 63.101 0 43.559 22.181 81.993 55.835 104.479a125.556 125.556 0 0 1-56.867-15.756v1.568c0 60.806 43.291 111.554 100.693 123.104-10.517 2.83-21.607 4.398-33.08 4.398-8.107 0-15.947-.803-23.634-2.333 15.985 49.907 62.336 86.199 117.253 87.194-42.947 33.654-97.099 53.655-155.916 53.655-10.134 0-20.116-.612-29.944-1.721 55.567 35.681 121.536 56.485 192.438 56.485 230.948 0 357.188-191.291 357.188-357.188l-.421-16.253c24.666-17.593 46.005-39.697 62.794-64.861z"/></symbol></svg>